HIERARCHY
ROOT Hips
{
  OFFSET 267.745 86.9975 -272.335
  CHANNELS 6 Xposition Yposition Zposition Zrotation Xrotation Yrotation
  JOINT LeftUpLeg
  {
    OFFSET 8.64259 1.95398 -2.38835
    CHANNELS 3 Zrotation Xrotation Yrotation
    JOINT LeftLeg
    {
      OFFSET 43.7702 0 0
      CHANNELS 3 Zrotation Xrotation Yrotation
      JOINT LeftFoot
      {
        OFFSET 40.6238 0 0
        CHANNELS 3 Zrotation Xrotation Yrotation
        JOINT LeftToeBase
        {
          OFFSET 12.7242 0 0
          CHANNELS 3 Zrotation Xrotation Yrotation
          End Site
          {
            OFFSET 0 0 0
          }
        }
      }
    }
  }
  JOINT RightUpLeg
  {
    OFFSET -8.2249 1.95398 -2.59336
    CHANNELS 3 Zrotation Xrotation Yrotation
    JOINT RightLeg
    {
      OFFSET 43.5653 0 0
      CHANNELS 3 Zrotation Xrotation Yrotation
      JOINT RightFoot
      {
        OFFSET 40.6238 0 0
        CHANNELS 3 Zrotation Xrotation Yrotation
        JOINT RightToeBase
        {
          OFFSET 12.7242 0 0
          CHANNELS 3 Zrotation Xrotation Yrotation
          End Site
          {
            OFFSET 0 0 0
          }
        }
      }
    }
  }
  JOINT Spine
  {
    OFFSET 0.165834 0.87714 6.61349
    CHANNELS 3 Zrotation Xrotation Yrotation
    JOINT Spine1
    {
      OFFSET 7.38963 1.71661e-005 0
      CHANNELS 3 Zrotation Xrotation Yrotation
      JOINT Spine2
      {
        OFFSET 11.9445 1.14441e-005 0
        CHANNELS 3 Zrotation Xrotation Yrotation
        JOINT Spine3
        {
          OFFSET 14.7254 4.19617e-005 0
          CHANNELS 3 Zrotation Xrotation Yrotation
          JOINT Spine4
          {
            OFFSET 10.9679 0 0
            CHANNELS 3 Zrotation Xrotation Yrotation
            JOINT RightShoulder
            {
              OFFSET 2.46616 -1.6653 3.69651
              CHANNELS 3 Zrotation Xrotation Yrotation
              JOINT RightArm
              {
                OFFSET 13.0012 0 0
                CHANNELS 3 Zrotation Xrotation Yrotation
                JOINT RightForeArm
                {
                  OFFSET 28.7848 1.52588e-005 0
                  CHANNELS 3 Zrotation Xrotation Yrotation
                  JOINT RightHand
                  {
                    OFFSET 26.5688 1.52588e-005 0
                    CHANNELS 3 Zrotation Xrotation Yrotation
                    End Site
                    {
                      OFFSET 0 0 0
                    }
                  }
                }
              }
            }
            JOINT LeftShoulder
            {
              OFFSET 2.38034 -1.29275 -3.7523
              CHANNELS 3 Zrotation Xrotation Yrotation
              JOINT LeftArm
              {
                OFFSET 16.3182 6.10352e-005 0
                CHANNELS 3 Zrotation Xrotation Yrotation
                JOINT LeftForeArm
                {
                  OFFSET 27.0901 0 0
                  CHANNELS 3 Zrotation Xrotation Yrotation
                  JOINT LeftHand
                  {
                    OFFSET 24.5451 1.52588e-005 0
                    CHANNELS 3 Zrotation Xrotation Yrotation
                    End Site
                    {
                      OFFSET 0 0 0
                    }
                  }
                }
              }
            }
            JOINT Neck
            {
              OFFSET 5.0226 -0.0266342 0
              CHANNELS 3 Zrotation Xrotation Yrotation
              JOINT Head
              {
                OFFSET 6.69364 2.86102e-005 0
                CHANNELS 3 Zrotation Xrotation Yrotation
                End Site
                {
                  OFFSET 0 0 0
                }
              }
            }
          }
        }
      }
    }
  }
}
MOTION
Frames:	6
Frame Time:	0.0416667
-289.19 66.3598 312.778 89.4141 26.5984 84.8895 -158.81 55.6325 87.139 -81.7469 42.4125 -4.29645 88.5423 27.7751 13.2314 136.171 -51.5007 -34.7572 138.056 -26.1014 6.27401 -8.48425 3.75369 65.5058 11.0419 54.1218 -1.76441 16.8713 -31.1553 134.968 3.41326 3.65981 -89.2479 19.6016 7.08122 0.0414598 7.95001 7.07615 -0.271848 -14.7302 6.73984 2.17759 5.28245 6.73983 2.17759 120.949 -6.30051 -24.3115 135.193 -54.3202 99.9532 -57.8997 23.2538 -65.6251 -12.7126 5.03482 -50.3932 -61.6748 -28.1491 129.033 -29.6215 47.6484 31.9939 48.7907 18.7353 -80.5746 28.9794 -24.411 -79.4257 66.4173 -7.36267 13.9151 -123.557 -0.545767 -12.8951 
-289.606 66.3022 313.154 89.2552 26.6165 85.2 -158.893 56.2598 87.2905 -82.24 42.3434 -3.96529 88.7644 27.765 12.9813 132.329 -53.3025 -39.4853 138.371 -26.1007 8.01626 -2.74679 1.17522 64.3951 16.6383 54.4229 -9.91401 29.9367 -15.3203 139.606 3.40678 3.65087 -89.2582 19.6199 7.06298 0.0225767 7.96827 7.05709 -0.289885 -14.7114 6.72811 2.15405 5.30126 6.7281 2.15405 121.027 -6.40843 -24.2451 135.086 -53.7901 100.574 -59.1385 23.4697 -65.4704 -13.0891 5.29654 -51.1907 -61.6619 -28.0501 129.103 -28.0635 46.7573 30.0241 48.8915 21.3633 -80.423 29.6942 -25.0858 -79.674 66.6414 -7.36854 13.9367 -123.682 -0.386637 -13.0316 
-290.771 66.1302 314.225 88.7981 26.6793 86.0882 -159.233 58.0672 87.8141 -83.6281 42.1517 -3.07332 89.3325 27.7052 12.3085 121.2 -56.4588 -52.4001 138.601 -26.7962 13.366 15.5198 -8.38565 62.5266 25.04 49.4639 -25.8636 66.1918 27.8178 115.137 3.38682 3.62595 -89.2865 19.6709 7.00791 -0.0282168 8.01894 6.99985 -0.338169 -14.659 6.69087 2.0889 5.35364 6.6909 2.08889 121.259 -6.72703 -24.0513 134.702 -52.2836 102.256 -62.8838 23.9968 -64.8817 -14.2171 6.08001 -53.3012 -61.6224 -27.7723 129.309 -23.615 43.4738 24.2972 49.5842 29.6997 -80.5743 31.971 -27.2112 -80.3343 67.2839 -7.39319 13.9944 -124.032 0.0684759 -13.4251 
-292.56 65.8335 315.833 88.0768 26.8139 87.4866 -160.026 60.9229 88.7755 -85.7678 41.8861 -1.81922 89.9901 27.5975 11.4772 106.29 -57.6075 -68.7818 138.395 -28.865 22.3829 39.0753 -27.2914 61.7112 18.4337 41.3011 -25.5422 113.963 21.8805 56.5615 3.3497 3.58917 -89.3283 19.7458 6.9119 -0.0999599 8.09329 6.90078 -0.405558 -14.5815 6.62091 1.99131 5.43113 6.62092 1.99131 121.643 -7.25375 -23.7363 133.892 -49.969 104.64 -69.4779 24.4405 -63.4489 -16.1875 7.42646 -56.0384 -61.5511 -27.3532 129.645 -16.9874 35.2434 15.2352 53.7307 45.814 -84.4213 36.4577 -31.1969 -80.9782 68.2994 -7.45339 14.0736 -124.56 0.782688 -14.0515 
-294.918 65.4217 317.811 87.1336 27.053 89.3262 -161.534 64.6802 90.3321 -88.4485 40.1556 -0.406191 91.18 27.4378 9.06983 93.2484 -56.3002 -82.6215 140.417 -29.5021 36.4997 47.4223 -55.3686 58.316 13.9969 37.8755 -10.0886 126.359 1.97651 32.2726 3.29102 3.54648 -89.3793 19.8321 6.76873 -0.181229 8.17882 6.75418 -0.480352 -14.491 6.50888 1.8703 5.52161 6.50887 1.87029 122.181 -7.99126 -23.3038 132.517 -47.0939 107.32 -79.666 23.9248 -60.5234 -19.2401 9.36442 -58.3151 -61.4397 -26.837 130.109 -10.5036 14.9422 4.01398 95.215 69.3766 -126.681 44.8199 -37.4902 -79.943 69.6441 -7.57091 14.1582 -125.215 1.71865 -14.8879 
-297.723 64.9408 320.054 86.0199 27.4134 91.5334 -164.45 69.0973 93.0983 -91.3154 39.2378 0.935027 91.576 27.2326 7.71241 84.1644 -53.9035 -91.9774 140.291 -33.0679 43.5469 61.7146 -69.9468 62.2538 7.76276 37.0869 9.37738 135.761 -3.42786 26.818 3.20827 3.50568 -89.4356 19.9138 6.57543 -0.261878 8.25946 6.55751 -0.552288 -14.4035 6.34885 1.73463 5.6091 6.34885 1.73463 122.88 -8.94385 -22.7568 130.527 -43.98 109.929 -94.3155 20.7617 -55.6293 -23.7248 11.7032 -58.4978 -61.279 -26.2678 130.703 -11.9269 -33.2028 -9.70728 163.555 24.5567 178.636 57.5005 -44.2353 -74.73 71.2768 -7.76803 14.2325 -125.948 2.84171 -15.9142 
